<?xml version="1.0" encoding="utf-8"?>
<!-- Generator: Adobe Illustrator 16.0.0, SVG Export Plug-In . SVG Version: 6.00 Build 0)  -->
<!DOCTYPE svg PUBLIC "-//W3C//DTD SVG 1.1//EN" "http://www.w3.org/Graphics/SVG/1.1/DTD/svg11.dtd">
<svg version="1.1" id="Layer_1" xmlns="http://www.w3.org/2000/svg" xmlns:xlink="http://www.w3.org/1999/xlink" x="0px" y="0px"
	 width="359px" height="359px" viewBox="2 24.5 359 359" enable-background="new 2 24.5 359 359" xml:space="preserve">
<circle fill="#009E9F" cx="181.5" cy="204" r="179.5"/>
<path fill="#FFFFFF" d="M270.781,219.354c1.643-6.894,2.639-13.993,2.639-21.179c0-24.548-9.555-47.648-26.932-65.016
	l-16.096,16.092c13.078,13.062,20.279,30.442,20.279,48.912c0,4.318-0.555,8.559-1.359,12.747
	c-16.227,1.007-28.635,16.019-24.92,33.169c2.186,10.158,10.4,18.35,20.562,20.521c17.674,3.804,33.299-9.581,33.299-26.596
	C278.254,230.771,275.377,224.236,270.781,219.354"/>
<path fill="#FFFFFF" d="M146.641,257.636c-3.716-2.153-7.131-4.732-10.361-7.517c2.96-5.912,4.11-12.91,1.578-20.561
	c-3.13-9.471-11.373-16.808-21.228-18.433c-17.29-2.855-32.226,10.594-31.876,27.441c0.128,6.433,3.169,12.473,7.68,17.054
	c9.826,9.965,18.17,10.632,25.697,8.871c5.145,4.905,10.903,9.234,17.146,12.835c14.159,8.181,29.876,12.358,45.806,12.358
	c7.996,0,16.041-1.062,23.971-3.173l-5.893-21.981C181.313,269.311,162.66,266.869,146.641,257.636"/>
<path fill="#FFFFFF" d="M183.648,90.452c-13.238-1.031-24.525,7.451-28.104,19.292c-6.852,2.026-13.509,4.757-19.753,8.369
	c-21.276,12.281-36.492,32.099-42.832,55.829l21.973,5.877c4.778-17.844,16.224-32.767,32.243-42.003
	c3.693-2.152,7.625-3.762,11.607-5.17c4.89,7.362,13.225,12.218,22.713,12.218c15.222,0,27.521-12.496,27.242-27.771
	C208.48,103.325,197.375,91.508,183.648,90.452"/>
</svg>
